name Walk_125 02
datacolumns 19
datarows 49
range 4.700000 4.724000
endheader
time	ground_force_vx	ground_force_vy	ground_force_vz	ground_force_px	ground_force_py	ground_force_pz	ground_force_vx	ground_force_vy	ground_force_vz	ground_force_px	ground_force_py	ground_force_pz	ground_torque_x	ground_torque_y	ground_torque_z	ground_torque_x	ground_torque_y	ground_torque_z
4.700000	-0.002661	-0.007041	-0.002869	-0.000305	-0.000000	0.000608	84.842024	768.121890	35.357659	1.063647	0.000000	-0.541729	0.000000	0.000000	0.000000	0.000000	-7.491215	-0.000000	
4.700500	-0.002700	-0.002906	-0.003681	-0.000273	-0.000000	0.000726	85.153057	768.329843	35.184817	1.063086	0.000000	-0.541712	0.000000	0.000000	0.000000	0.000000	-7.496999	-0.000000	
4.701000	-0.002674	0.001831	-0.004499	-0.000230	-0.000000	0.000839	85.460856	768.535713	35.011674	1.062526	0.000000	-0.541695	0.000000	0.000000	0.000000	0.000000	-7.501917	-0.000000	
4.701500	-0.002574	0.007125	-0.005303	-0.000175	-0.000000	0.000945	85.765385	768.739379	34.838435	1.061965	0.000000	-0.541678	0.000000	0.000000	0.000000	0.000000	-7.505952	-0.000000	
4.702000	-0.002395	0.012906	-0.006072	-0.000108	-0.000000	0.001040	86.066622	768.940709	34.665321	1.061406	0.000000	-0.541661	0.000000	0.000000	0.000000	0.000000	-7.509089	-0.000000	
4.702500	-0.002129	0.019086	-0.006779	-0.000030	-0.000000	0.001120	86.364554	769.139559	34.492562	1.060846	0.000000	-0.541644	0.000000	0.000000	0.000000	0.000000	-7.511311	-0.000000	
4.703000	-0.001775	0.025553	-0.007398	0.000058	-0.000000	0.001180	86.659184	769.335770	34.320401	1.060287	0.000000	-0.541628	0.000000	0.000000	0.000000	0.000000	-7.512603	-0.000000	
4.703500	-0.001328	0.032175	-0.007903	0.000156	-0.000000	0.001217	86.950525	769.529172	34.149088	1.059729	0.000000	-0.541611	0.000000	0.000000	0.000000	0.000000	-7.512948	-0.000000	
4.704000	-0.000790	0.038798	-0.008265	0.000263	-0.000000	0.001227	87.238606	769.719580	33.978880	1.059171	0.000000	-0.541595	0.000000	0.000000	0.000000	0.000000	-7.512331	-0.000000	
4.704500	-0.000162	0.045248	-0.008456	0.000376	-0.000000	0.001206	87.523470	769.906798	33.810039	1.058614	0.000000	-0.541579	0.000000	0.000000	0.000000	0.000000	-7.510737	-0.000000	
4.705000	0.000550	0.051336	-0.008451	0.000494	-0.000000	0.001151	87.805175	770.090615	33.642832	1.058057	0.000000	-0.541563	0.000000	0.000000	0.000000	0.000000	-7.508150	-0.000000	
4.705500	0.001338	0.056854	-0.008223	0.000614	-0.000000	0.001059	88.083791	770.270808	33.477525	1.057501	0.000000	-0.541547	0.000000	0.000000	0.000000	0.000000	-7.504554	-0.000000	
4.706000	0.002191	0.061587	-0.007751	0.000733	-0.000000	0.000927	88.359406	770.447143	33.314385	1.056946	0.000000	-0.541531	0.000000	0.000000	0.000000	0.000000	-7.499937	-0.000000	
4.706500	0.003096	0.065309	-0.007016	0.000848	-0.000000	0.000754	88.632120	770.619370	33.153675	1.056392	0.000000	-0.541516	0.000000	0.000000	0.000000	0.000000	-7.494282	-0.000000	
4.707000	0.004035	0.067795	-0.006004	0.000956	-0.000000	0.000540	88.902046	770.787230	32.995656	1.055838	0.000000	-0.541500	0.000000	0.000000	0.000000	0.000000	-7.487576	-0.000000	
4.707500	0.004988	0.068822	-0.004705	0.001052	-0.000000	0.000284	89.169312	770.950453	32.840582	1.055285	0.000000	-0.541485	0.000000	0.000000	0.000000	0.000000	-7.479806	-0.000000	
4.708000	0.005931	0.068177	-0.003117	0.001133	0.000000	-0.000012	89.434057	771.108757	32.688700	1.054732	0.000000	-0.541469	0.000000	0.000000	0.000000	0.000000	-7.470959	-0.000000	
4.708500	0.006840	0.065664	-0.001245	0.001195	0.000000	-0.000346	89.696432	771.261852	32.540249	1.054181	0.000000	-0.541454	0.000000	0.000000	0.000000	0.000000	-7.461021	-0.000000	
4.709000	0.007685	0.061110	0.000898	0.001233	0.000000	-0.000713	89.956599	771.409436	32.395456	1.053630	0.000000	-0.541438	0.000000	0.000000	0.000000	0.000000	-7.449982	-0.000000	
4.709500	0.008436	0.054375	0.003290	0.001244	0.000000	-0.001108	90.214727	771.551203	32.254537	1.053080	0.000000	-0.541423	0.000000	0.000000	0.000000	0.000000	-7.437831	-0.000000	
4.710000	0.009062	0.045355	0.005902	0.001223	0.000000	-0.001525	90.470995	771.686836	32.117698	1.052531	0.000000	-0.541408	0.000000	0.000000	0.000000	0.000000	-7.424556	-0.000000	
4.710500	0.009531	0.033997	0.008692	0.001168	0.000000	-0.001954	90.725587	771.816014	31.985128	1.051983	0.000000	-0.541392	0.000000	0.000000	0.000000	0.000000	-7.410148	-0.000000	
4.711000	0.009809	0.020298	0.011610	0.001076	0.000000	-0.002387	90.978695	771.938411	31.857004	1.051435	0.000000	-0.541377	0.000000	0.000000	0.000000	0.000000	-7.394599	-0.000000	
4.711500	0.009867	0.004320	0.014596	0.000943	0.000000	-0.002814	91.230510	772.053697	31.733486	1.050888	0.000000	-0.541362	0.000000	0.000000	0.000000	0.000000	-7.377900	-0.000000	
4.712000	0.009673	-0.013812	0.017581	0.000768	0.000000	-0.003220	91.481228	772.161537	31.614722	1.050342	0.000000	-0.541346	0.000000	0.000000	0.000000	0.000000	-7.360044	-0.000000	
4.712500	0.009201	-0.033899	0.020487	0.000552	0.000000	-0.003595	91.731046	772.261599	31.500840	1.049797	0.000000	-0.541331	0.000000	0.000000	0.000000	0.000000	-7.341025	-0.000000	
4.713000	0.008427	-0.055664	0.023227	0.000293	0.000000	-0.003923	91.980158	772.353547	31.391957	1.049253	0.000000	-0.541316	0.000000	0.000000	0.000000	0.000000	-7.320839	-0.000000	
4.713500	0.007335	-0.078753	0.025709	-0.000007	0.000000	-0.004190	92.228754	772.437047	31.288170	1.048710	0.000000	-0.541300	0.000000	0.000000	0.000000	0.000000	-7.299480	-0.000000	
4.714000	0.005911	-0.102733	0.027836	-0.000345	0.000000	-0.004382	92.477023	772.511767	31.189563	1.048167	0.000000	-0.541285	0.000000	0.000000	0.000000	0.000000	-7.276948	-0.000000	
4.714500	0.004150	-0.127092	0.029506	-0.000717	0.000000	-0.004484	92.725144	772.577380	31.096203	1.047625	0.000000	-0.541270	0.000000	0.000000	0.000000	0.000000	-7.253239	-0.000000	
4.715000	0.002056	-0.151244	0.030618	-0.001117	0.000000	-0.004481	92.973292	772.633560	31.008145	1.047084	0.000000	-0.541254	0.000000	0.000000	0.000000	0.000000	-7.228353	-0.000000	
4.715500	-0.000358	-0.174534	0.031073	-0.001540	0.000000	-0.004362	93.221631	772.679990	30.925426	1.046544	0.000000	-0.541239	0.000000	0.000000	0.000000	0.000000	-7.202292	-0.000000	
4.716000	-0.003072	-0.196246	0.030774	-0.001976	0.000000	-0.004114	93.470313	772.716360	30.848072	1.046005	0.000000	-0.541223	0.000000	0.000000	0.000000	0.000000	-7.175058	-0.000000	
4.716500	-0.006051	-0.215616	0.029635	-0.002416	0.000000	-0.003726	93.719483	772.742364	30.776097	1.045466	0.000000	-0.541208	0.000000	0.000000	0.000000	0.000000	-7.146654	-0.000000	
4.717000	-0.009253	-0.231846	0.027579	-0.002849	0.000000	-0.003193	93.969270	772.757709	30.709500	1.044929	0.000000	-0.541192	0.000000	0.000000	0.000000	0.000000	-7.117084	-0.000000	
4.717500	-0.012621	-0.244117	0.024544	-0.003264	0.000000	-0.002508	94.219789	772.762111	30.648273	1.044392	0.000000	-0.541177	0.000000	0.000000	0.000000	0.000000	-7.086357	-0.000000	
4.718000	-0.016088	-0.251613	0.020484	-0.003646	0.000000	-0.001672	94.471142	772.755296	30.592396	1.043856	0.000000	-0.541161	0.000000	0.000000	0.000000	0.000000	-7.054479	-0.000000	
4.718500	-0.019578	-0.253538	0.015377	-0.003982	0.000000	-0.000686	94.723416	772.737001	30.541839	1.043320	0.000000	-0.541146	0.000000	0.000000	0.000000	0.000000	-7.021460	-0.000000	
4.719000	-0.023002	-0.249144	0.009224	-0.004256	-0.000000	0.000442	94.976682	772.706977	30.496566	1.042786	0.000000	-0.541130	0.000000	0.000000	0.000000	0.000000	-6.987310	-0.000000	
4.719500	-0.026261	-0.237753	0.002053	-0.004456	-0.000000	0.001701	95.230994	772.664986	30.456535	1.042252	0.000000	-0.541115	0.000000	0.000000	0.000000	0.000000	-6.952043	-0.000000	
4.720000	-0.029251	-0.218788	-0.006075	-0.004564	-0.000000	0.003074	95.486392	772.610804	30.421696	1.041719	0.000000	-0.541100	0.000000	0.000000	0.000000	0.000000	-6.915672	-0.000000	
4.720500	-0.031860	-0.191797	-0.015069	-0.004568	-0.000000	0.004539	95.742898	772.544222	30.391995	1.041186	0.000000	-0.541084	0.000000	0.000000	0.000000	0.000000	-6.878213	-0.000000	
4.721000	-0.033970	-0.156483	-0.024802	-0.004454	-0.000000	0.006071	96.000519	772.465044	30.367374	1.040655	0.000000	-0.541069	0.000000	0.000000	0.000000	0.000000	-6.839683	-0.000000	
4.721500	-0.035465	-0.112731	-0.035113	-0.004211	-0.000000	0.007637	96.259246	772.373088	30.347773	1.040124	0.000000	-0.541054	0.000000	0.000000	0.000000	0.000000	-6.800100	-0.000000	
4.722000	-0.036227	-0.060636	-0.045802	-0.003827	-0.000000	0.009200	96.519055	772.268186	30.333127	1.039594	0.000000	-0.541039	0.000000	0.000000	0.000000	0.000000	-6.759486	-0.000000	
4.722500	-0.036145	-0.000525	-0.056637	-0.003297	-0.000000	0.010718	96.779909	772.150185	30.323372	1.039065	0.000000	-0.541024	0.000000	0.000000	0.000000	0.000000	-6.717862	-0.000000	
4.723000	-0.035113	0.067020	-0.067352	-0.002615	-0.000000	0.012146	97.041757	772.018947	30.318441	1.038537	0.000000	-0.541009	0.000000	0.000000	0.000000	0.000000	-6.675252	-0.000000	
4.723500	-0.033041	0.141146	-0.077648	-0.001779	-0.000000	0.013435	97.304533	771.874346	30.318268	1.038009	0.000000	-0.540995	0.000000	0.000000	0.000000	0.000000	-6.631680	-0.000000	
4.724000	-0.029850	0.220716	-0.087200	-0.000794	-0.000000	0.014533	97.568163	771.716271	30.322783	1.037482	0.000000	-0.540980	0.000000	0.000000	0.000000	0.000000	-6.587175	-0.000000	
